<mxfile host="app.diagrams.net" modified="2022-07-14T07:37:16.179Z" agent="5.0 (Windows)" etag="_BNktjD34f1hV5a-v-GD" version="20.1.1" type="github" pages="9">
  <diagram id="YqXeawKpuUPLhjrmGk-W" name="Contenu RUM">
    <mxGraphModel dx="868" dy="450" grid="1" gridSize="10" guides="1" tooltips="1" connect="1" arrows="1" fold="1" page="1" pageScale="1" pageWidth="1169" pageHeight="827" math="0" shadow="0">
      <root>
        <mxCell id="0" />
        <mxCell id="1" parent="0" />
        <mxCell id="AvRvH77AmydMRI6y-CAY-8" value="Identification du patient" style="swimlane;fontStyle=0;childLayout=stackLayout;horizontal=1;startSize=30;horizontalStack=0;resizeParent=1;resizeParentMax=0;resizeLast=0;collapsible=1;marginBottom=0;fillColor=#f5f5f5;fontColor=#333333;strokeColor=#666666;" parent="1" vertex="1">
          <mxGeometry x="100" y="80" width="140" height="210" as="geometry" />
        </mxCell>
        <mxCell id="AvRvH77AmydMRI6y-CAY-9" value="Numéro de RSS" style="text;strokeColor=none;fillColor=none;align=left;verticalAlign=middle;spacingLeft=4;spacingRight=4;overflow=hidden;points=[[0,0.5],[1,0.5]];portConstraint=eastwest;rotatable=0;" parent="AvRvH77AmydMRI6y-CAY-8" vertex="1">
          <mxGeometry y="30" width="140" height="30" as="geometry" />
        </mxCell>
        <mxCell id="AvRvH77AmydMRI6y-CAY-10" value="Numéro de séjour" style="text;strokeColor=none;fillColor=none;align=left;verticalAlign=middle;spacingLeft=4;spacingRight=4;overflow=hidden;points=[[0,0.5],[1,0.5]];portConstraint=eastwest;rotatable=0;" parent="AvRvH77AmydMRI6y-CAY-8" vertex="1">
          <mxGeometry y="60" width="140" height="30" as="geometry" />
        </mxCell>
        <mxCell id="AvRvH77AmydMRI6y-CAY-12" value="Sexe" style="text;strokeColor=none;fillColor=none;align=left;verticalAlign=middle;spacingLeft=4;spacingRight=4;overflow=hidden;points=[[0,0.5],[1,0.5]];portConstraint=eastwest;rotatable=0;" parent="AvRvH77AmydMRI6y-CAY-8" vertex="1">
          <mxGeometry y="90" width="140" height="30" as="geometry" />
        </mxCell>
        <mxCell id="AvRvH77AmydMRI6y-CAY-11" value="Date de naissance" style="text;strokeColor=none;fillColor=none;align=left;verticalAlign=middle;spacingLeft=4;spacingRight=4;overflow=hidden;points=[[0,0.5],[1,0.5]];portConstraint=eastwest;rotatable=0;" parent="AvRvH77AmydMRI6y-CAY-8" vertex="1">
          <mxGeometry y="120" width="140" height="30" as="geometry" />
        </mxCell>
        <mxCell id="AvRvH77AmydMRI6y-CAY-20" value="Code postal" style="text;strokeColor=none;fillColor=none;align=left;verticalAlign=middle;spacingLeft=4;spacingRight=4;overflow=hidden;points=[[0,0.5],[1,0.5]];portConstraint=eastwest;rotatable=0;" parent="AvRvH77AmydMRI6y-CAY-8" vertex="1">
          <mxGeometry y="150" width="140" height="30" as="geometry" />
        </mxCell>
        <mxCell id="AvRvH77AmydMRI6y-CAY-13" value="..." style="text;strokeColor=none;fillColor=none;align=left;verticalAlign=middle;spacingLeft=4;spacingRight=4;overflow=hidden;points=[[0,0.5],[1,0.5]];portConstraint=eastwest;rotatable=0;" parent="AvRvH77AmydMRI6y-CAY-8" vertex="1">
          <mxGeometry y="180" width="140" height="30" as="geometry" />
        </mxCell>
        <mxCell id="AvRvH77AmydMRI6y-CAY-14" value="Autres informations administratives" style="swimlane;fontStyle=0;childLayout=stackLayout;horizontal=1;startSize=30;horizontalStack=0;resizeParent=1;resizeParentMax=0;resizeLast=0;collapsible=1;marginBottom=0;fillColor=#dae8fc;strokeColor=#6c8ebf;" parent="1" vertex="1">
          <mxGeometry x="270" y="80" width="240" height="210" as="geometry" />
        </mxCell>
        <mxCell id="AvRvH77AmydMRI6y-CAY-15" value="Numéro établissement FINESS" style="text;strokeColor=none;fillColor=none;align=left;verticalAlign=middle;spacingLeft=4;spacingRight=4;overflow=hidden;points=[[0,0.5],[1,0.5]];portConstraint=eastwest;rotatable=0;" parent="AvRvH77AmydMRI6y-CAY-14" vertex="1">
          <mxGeometry y="30" width="240" height="30" as="geometry" />
        </mxCell>
        <mxCell id="AvRvH77AmydMRI6y-CAY-16" value="Numéro d&#39;unité médicale" style="text;strokeColor=none;fillColor=none;align=left;verticalAlign=middle;spacingLeft=4;spacingRight=4;overflow=hidden;points=[[0,0.5],[1,0.5]];portConstraint=eastwest;rotatable=0;" parent="AvRvH77AmydMRI6y-CAY-14" vertex="1">
          <mxGeometry y="60" width="240" height="30" as="geometry" />
        </mxCell>
        <mxCell id="AvRvH77AmydMRI6y-CAY-17" value="Type de lit" style="text;strokeColor=none;fillColor=none;align=left;verticalAlign=middle;spacingLeft=4;spacingRight=4;overflow=hidden;points=[[0,0.5],[1,0.5]];portConstraint=eastwest;rotatable=0;" parent="AvRvH77AmydMRI6y-CAY-14" vertex="1">
          <mxGeometry y="90" width="240" height="30" as="geometry" />
        </mxCell>
        <mxCell id="AvRvH77AmydMRI6y-CAY-18" value="Date d&#39;entrée" style="text;strokeColor=none;fillColor=none;align=left;verticalAlign=middle;spacingLeft=4;spacingRight=4;overflow=hidden;points=[[0,0.5],[1,0.5]];portConstraint=eastwest;rotatable=0;" parent="AvRvH77AmydMRI6y-CAY-14" vertex="1">
          <mxGeometry y="120" width="240" height="30" as="geometry" />
        </mxCell>
        <mxCell id="AvRvH77AmydMRI6y-CAY-19" value="Mode d&#39;entrée" style="text;strokeColor=none;fillColor=none;align=left;verticalAlign=middle;spacingLeft=4;spacingRight=4;overflow=hidden;points=[[0,0.5],[1,0.5]];portConstraint=eastwest;rotatable=0;" parent="AvRvH77AmydMRI6y-CAY-14" vertex="1">
          <mxGeometry y="150" width="240" height="30" as="geometry" />
        </mxCell>
        <mxCell id="AvRvH77AmydMRI6y-CAY-21" value="..." style="text;strokeColor=none;fillColor=none;align=left;verticalAlign=middle;spacingLeft=4;spacingRight=4;overflow=hidden;points=[[0,0.5],[1,0.5]];portConstraint=eastwest;rotatable=0;" parent="AvRvH77AmydMRI6y-CAY-14" vertex="1">
          <mxGeometry y="180" width="240" height="30" as="geometry" />
        </mxCell>
        <mxCell id="AvRvH77AmydMRI6y-CAY-22" value="Informations médicales" style="swimlane;fontStyle=0;childLayout=stackLayout;horizontal=1;startSize=30;horizontalStack=0;resizeParent=1;resizeParentMax=0;resizeLast=0;collapsible=1;marginBottom=0;fillColor=#d5e8d4;strokeColor=#82b366;" parent="1" vertex="1">
          <mxGeometry x="540" y="80" width="160" height="210" as="geometry" />
        </mxCell>
        <mxCell id="AvRvH77AmydMRI6y-CAY-23" value="Diagnostics CIM10" style="text;strokeColor=none;fillColor=none;align=left;verticalAlign=middle;spacingLeft=4;spacingRight=4;overflow=hidden;points=[[0,0.5],[1,0.5]];portConstraint=eastwest;rotatable=0;" parent="AvRvH77AmydMRI6y-CAY-22" vertex="1">
          <mxGeometry y="30" width="160" height="30" as="geometry" />
        </mxCell>
        <mxCell id="AvRvH77AmydMRI6y-CAY-24" value="Donnés associées doc." style="text;strokeColor=none;fillColor=none;align=left;verticalAlign=middle;spacingLeft=4;spacingRight=4;overflow=hidden;points=[[0,0.5],[1,0.5]];portConstraint=eastwest;rotatable=0;" parent="AvRvH77AmydMRI6y-CAY-22" vertex="1">
          <mxGeometry y="60" width="160" height="30" as="geometry" />
        </mxCell>
        <mxCell id="AvRvH77AmydMRI6y-CAY-25" value="Actes CCAM" style="text;strokeColor=none;fillColor=none;align=left;verticalAlign=middle;spacingLeft=4;spacingRight=4;overflow=hidden;points=[[0,0.5],[1,0.5]];portConstraint=eastwest;rotatable=0;" parent="AvRvH77AmydMRI6y-CAY-22" vertex="1">
          <mxGeometry y="90" width="160" height="30" as="geometry" />
        </mxCell>
        <mxCell id="AvRvH77AmydMRI6y-CAY-26" value="Indice de gravité IGSII" style="text;strokeColor=none;fillColor=none;align=left;verticalAlign=middle;spacingLeft=4;spacingRight=4;overflow=hidden;points=[[0,0.5],[1,0.5]];portConstraint=eastwest;rotatable=0;" parent="AvRvH77AmydMRI6y-CAY-22" vertex="1">
          <mxGeometry y="120" width="160" height="30" as="geometry" />
        </mxCell>
        <mxCell id="AvRvH77AmydMRI6y-CAY-27" value="Dosimétrie" style="text;strokeColor=none;fillColor=none;align=left;verticalAlign=middle;spacingLeft=4;spacingRight=4;overflow=hidden;points=[[0,0.5],[1,0.5]];portConstraint=eastwest;rotatable=0;" parent="AvRvH77AmydMRI6y-CAY-22" vertex="1">
          <mxGeometry y="150" width="160" height="30" as="geometry" />
        </mxCell>
        <mxCell id="AvRvH77AmydMRI6y-CAY-28" value="..." style="text;strokeColor=none;fillColor=none;align=left;verticalAlign=middle;spacingLeft=4;spacingRight=4;overflow=hidden;points=[[0,0.5],[1,0.5]];portConstraint=eastwest;rotatable=0;" parent="AvRvH77AmydMRI6y-CAY-22" vertex="1">
          <mxGeometry y="180" width="160" height="30" as="geometry" />
        </mxCell>
      </root>
    </mxGraphModel>
  </diagram>
  <diagram id="0NnsRgoql49soaeeaQXL" name="RSS">
    <mxGraphModel dx="868" dy="450" grid="1" gridSize="10" guides="1" tooltips="1" connect="1" arrows="1" fold="1" page="1" pageScale="1" pageWidth="1169" pageHeight="827" math="0" shadow="0">
      <root>
        <mxCell id="wVUi5qG6Gk_p12g-t8Ib-0" />
        <mxCell id="wVUi5qG6Gk_p12g-t8Ib-1" parent="wVUi5qG6Gk_p12g-t8Ib-0" />
        <mxCell id="zir0saS6Pj2V3J828WPI-2" style="edgeStyle=orthogonalEdgeStyle;rounded=0;orthogonalLoop=1;jettySize=auto;html=1;" parent="wVUi5qG6Gk_p12g-t8Ib-1" source="zir0saS6Pj2V3J828WPI-1" edge="1">
          <mxGeometry relative="1" as="geometry">
            <mxPoint x="240" y="200" as="targetPoint" />
          </mxGeometry>
        </mxCell>
        <mxCell id="zir0saS6Pj2V3J828WPI-16" style="edgeStyle=orthogonalEdgeStyle;rounded=0;orthogonalLoop=1;jettySize=auto;html=1;entryX=0.5;entryY=0;entryDx=0;entryDy=0;" parent="wVUi5qG6Gk_p12g-t8Ib-1" source="zir0saS6Pj2V3J828WPI-1" target="zir0saS6Pj2V3J828WPI-10" edge="1">
          <mxGeometry relative="1" as="geometry">
            <mxPoint x="145" y="250" as="targetPoint" />
          </mxGeometry>
        </mxCell>
        <mxCell id="zir0saS6Pj2V3J828WPI-1" value="Médecine" style="rounded=0;whiteSpace=wrap;html=1;fillColor=#f5f5f5;fontColor=#333333;strokeColor=#666666;" parent="wVUi5qG6Gk_p12g-t8Ib-1" vertex="1">
          <mxGeometry x="100" y="180" width="90" height="40" as="geometry" />
        </mxCell>
        <mxCell id="zir0saS6Pj2V3J828WPI-6" style="edgeStyle=orthogonalEdgeStyle;rounded=0;orthogonalLoop=1;jettySize=auto;html=1;entryX=0;entryY=0.5;entryDx=0;entryDy=0;" parent="wVUi5qG6Gk_p12g-t8Ib-1" source="zir0saS6Pj2V3J828WPI-3" target="zir0saS6Pj2V3J828WPI-5" edge="1">
          <mxGeometry relative="1" as="geometry" />
        </mxCell>
        <mxCell id="zir0saS6Pj2V3J828WPI-17" value="" style="edgeStyle=orthogonalEdgeStyle;rounded=0;orthogonalLoop=1;jettySize=auto;html=1;" parent="wVUi5qG6Gk_p12g-t8Ib-1" source="zir0saS6Pj2V3J828WPI-3" target="zir0saS6Pj2V3J828WPI-12" edge="1">
          <mxGeometry relative="1" as="geometry" />
        </mxCell>
        <mxCell id="zir0saS6Pj2V3J828WPI-3" value="Chirurgie" style="rounded=0;whiteSpace=wrap;html=1;fillColor=#dae8fc;strokeColor=#6c8ebf;" parent="wVUi5qG6Gk_p12g-t8Ib-1" vertex="1">
          <mxGeometry x="240" y="180" width="100" height="40" as="geometry" />
        </mxCell>
        <mxCell id="zir0saS6Pj2V3J828WPI-8" style="edgeStyle=orthogonalEdgeStyle;rounded=0;orthogonalLoop=1;jettySize=auto;html=1;entryX=0;entryY=0.5;entryDx=0;entryDy=0;" parent="wVUi5qG6Gk_p12g-t8Ib-1" source="zir0saS6Pj2V3J828WPI-5" target="zir0saS6Pj2V3J828WPI-7" edge="1">
          <mxGeometry relative="1" as="geometry" />
        </mxCell>
        <mxCell id="zir0saS6Pj2V3J828WPI-18" value="" style="edgeStyle=orthogonalEdgeStyle;rounded=0;orthogonalLoop=1;jettySize=auto;html=1;" parent="wVUi5qG6Gk_p12g-t8Ib-1" source="zir0saS6Pj2V3J828WPI-5" target="zir0saS6Pj2V3J828WPI-14" edge="1">
          <mxGeometry relative="1" as="geometry" />
        </mxCell>
        <mxCell id="zir0saS6Pj2V3J828WPI-5" value="Réa" style="rounded=0;whiteSpace=wrap;html=1;fillColor=#fff2cc;strokeColor=#d6b656;" parent="wVUi5qG6Gk_p12g-t8Ib-1" vertex="1">
          <mxGeometry x="390" y="180" width="90" height="40" as="geometry" />
        </mxCell>
        <mxCell id="zir0saS6Pj2V3J828WPI-19" value="" style="edgeStyle=orthogonalEdgeStyle;rounded=0;orthogonalLoop=1;jettySize=auto;html=1;" parent="wVUi5qG6Gk_p12g-t8Ib-1" source="zir0saS6Pj2V3J828WPI-7" target="zir0saS6Pj2V3J828WPI-15" edge="1">
          <mxGeometry relative="1" as="geometry" />
        </mxCell>
        <mxCell id="zir0saS6Pj2V3J828WPI-7" value="Chirurgie" style="rounded=0;whiteSpace=wrap;html=1;fillColor=#dae8fc;strokeColor=#6c8ebf;" parent="wVUi5qG6Gk_p12g-t8Ib-1" vertex="1">
          <mxGeometry x="520" y="180" width="90" height="40" as="geometry" />
        </mxCell>
        <mxCell id="zir0saS6Pj2V3J828WPI-22" style="edgeStyle=orthogonalEdgeStyle;rounded=0;orthogonalLoop=1;jettySize=auto;html=1;entryX=0.5;entryY=0;entryDx=0;entryDy=0;" parent="wVUi5qG6Gk_p12g-t8Ib-1" source="zir0saS6Pj2V3J828WPI-10" target="zir0saS6Pj2V3J828WPI-21" edge="1">
          <mxGeometry relative="1" as="geometry">
            <Array as="points">
              <mxPoint x="145" y="320" />
              <mxPoint x="360" y="320" />
            </Array>
          </mxGeometry>
        </mxCell>
        <mxCell id="zir0saS6Pj2V3J828WPI-10" value="RUM 1" style="rounded=0;whiteSpace=wrap;html=1;fillColor=#f5f5f5;fontColor=#333333;strokeColor=#666666;" parent="wVUi5qG6Gk_p12g-t8Ib-1" vertex="1">
          <mxGeometry x="100" y="260" width="90" height="40" as="geometry" />
        </mxCell>
        <mxCell id="zir0saS6Pj2V3J828WPI-23" style="edgeStyle=orthogonalEdgeStyle;rounded=0;orthogonalLoop=1;jettySize=auto;html=1;" parent="wVUi5qG6Gk_p12g-t8Ib-1" source="zir0saS6Pj2V3J828WPI-12" edge="1">
          <mxGeometry relative="1" as="geometry">
            <mxPoint x="360" y="350" as="targetPoint" />
            <Array as="points">
              <mxPoint x="290" y="320" />
              <mxPoint x="360" y="320" />
            </Array>
          </mxGeometry>
        </mxCell>
        <mxCell id="zir0saS6Pj2V3J828WPI-12" value="RUM 2" style="rounded=0;whiteSpace=wrap;html=1;fillColor=#dae8fc;strokeColor=#6c8ebf;" parent="wVUi5qG6Gk_p12g-t8Ib-1" vertex="1">
          <mxGeometry x="240" y="260" width="100" height="40" as="geometry" />
        </mxCell>
        <mxCell id="zir0saS6Pj2V3J828WPI-24" style="edgeStyle=orthogonalEdgeStyle;rounded=0;orthogonalLoop=1;jettySize=auto;html=1;entryX=0.5;entryY=0;entryDx=0;entryDy=0;" parent="wVUi5qG6Gk_p12g-t8Ib-1" source="zir0saS6Pj2V3J828WPI-14" target="zir0saS6Pj2V3J828WPI-21" edge="1">
          <mxGeometry relative="1" as="geometry">
            <Array as="points">
              <mxPoint x="435" y="320" />
              <mxPoint x="360" y="320" />
            </Array>
          </mxGeometry>
        </mxCell>
        <mxCell id="zir0saS6Pj2V3J828WPI-14" value="RUM 3" style="rounded=0;whiteSpace=wrap;html=1;fillColor=#fff2cc;strokeColor=#d6b656;" parent="wVUi5qG6Gk_p12g-t8Ib-1" vertex="1">
          <mxGeometry x="390" y="260" width="90" height="40" as="geometry" />
        </mxCell>
        <mxCell id="zir0saS6Pj2V3J828WPI-25" style="edgeStyle=orthogonalEdgeStyle;rounded=0;orthogonalLoop=1;jettySize=auto;html=1;entryX=0.5;entryY=0;entryDx=0;entryDy=0;" parent="wVUi5qG6Gk_p12g-t8Ib-1" source="zir0saS6Pj2V3J828WPI-15" target="zir0saS6Pj2V3J828WPI-21" edge="1">
          <mxGeometry relative="1" as="geometry">
            <Array as="points">
              <mxPoint x="565" y="320" />
              <mxPoint x="360" y="320" />
            </Array>
          </mxGeometry>
        </mxCell>
        <mxCell id="zir0saS6Pj2V3J828WPI-15" value="RUM 4" style="rounded=0;whiteSpace=wrap;html=1;fillColor=#dae8fc;strokeColor=#6c8ebf;" parent="wVUi5qG6Gk_p12g-t8Ib-1" vertex="1">
          <mxGeometry x="520" y="260" width="90" height="40" as="geometry" />
        </mxCell>
        <mxCell id="C6tyS8K9lkglsXCqCCat-0" style="edgeStyle=orthogonalEdgeStyle;rounded=0;orthogonalLoop=1;jettySize=auto;html=1;" parent="wVUi5qG6Gk_p12g-t8Ib-1" source="zir0saS6Pj2V3J828WPI-21" edge="1">
          <mxGeometry relative="1" as="geometry">
            <mxPoint x="360" y="420" as="targetPoint" />
          </mxGeometry>
        </mxCell>
        <mxCell id="zir0saS6Pj2V3J828WPI-21" value="RSS UNIQUE" style="rounded=0;whiteSpace=wrap;html=1;fillColor=#d5e8d4;strokeColor=#82b366;" parent="wVUi5qG6Gk_p12g-t8Ib-1" vertex="1">
          <mxGeometry x="250" y="350" width="220" height="40" as="geometry" />
        </mxCell>
        <mxCell id="C6tyS8K9lkglsXCqCCat-1" value="RSA" style="rounded=0;whiteSpace=wrap;html=1;fillColor=#f8cecc;strokeColor=#b85450;" parent="wVUi5qG6Gk_p12g-t8Ib-1" vertex="1">
          <mxGeometry x="250" y="420" width="220" height="40" as="geometry" />
        </mxCell>
      </root>
    </mxGraphModel>
  </diagram>
  <diagram id="EW5ubbFlQDkbUTpmbSWJ" name="Parcours">
    <mxGraphModel dx="868" dy="450" grid="1" gridSize="10" guides="1" tooltips="1" connect="1" arrows="1" fold="1" page="1" pageScale="1" pageWidth="1169" pageHeight="827" math="0" shadow="0">
      <root>
        <mxCell id="0" />
        <mxCell id="1" parent="0" />
        <mxCell id="ZlMzDz9N2ERT_qik_gIG-2" value="Médecine" style="rounded=0;whiteSpace=wrap;html=1;fillColor=#f5f5f5;fontColor=#333333;strokeColor=#666666;" parent="1" vertex="1">
          <mxGeometry x="230" y="275" width="140" height="40" as="geometry" />
        </mxCell>
        <mxCell id="ZlMzDz9N2ERT_qik_gIG-4" value="Chirurgie" style="rounded=0;whiteSpace=wrap;html=1;fillColor=#dae8fc;strokeColor=#6c8ebf;" parent="1" vertex="1">
          <mxGeometry x="370" y="275" width="480" height="40" as="geometry" />
        </mxCell>
        <mxCell id="ZlMzDz9N2ERT_qik_gIG-8" value="" style="endArrow=none;html=1;rounded=0;" parent="1" edge="1">
          <mxGeometry width="50" height="50" relative="1" as="geometry">
            <mxPoint x="40" y="135" as="sourcePoint" />
            <mxPoint x="940" y="135" as="targetPoint" />
          </mxGeometry>
        </mxCell>
        <mxCell id="ZlMzDz9N2ERT_qik_gIG-9" value="Hébergement" style="text;html=1;strokeColor=none;fillColor=none;align=center;verticalAlign=middle;whiteSpace=wrap;rounded=0;" parent="1" vertex="1">
          <mxGeometry x="40" y="280" width="90" height="30" as="geometry" />
        </mxCell>
        <mxCell id="ZlMzDz9N2ERT_qik_gIG-10" value="Localisation" style="text;html=1;strokeColor=none;fillColor=none;align=center;verticalAlign=middle;whiteSpace=wrap;rounded=0;" parent="1" vertex="1">
          <mxGeometry x="40" y="65" width="90" height="30" as="geometry" />
        </mxCell>
        <mxCell id="ZlMzDz9N2ERT_qik_gIG-11" value="Entrées" style="rounded=0;whiteSpace=wrap;html=1;fillColor=#f5f5f5;fontColor=#333333;strokeColor=#666666;" parent="1" vertex="1">
          <mxGeometry x="150" y="60" width="60" height="40" as="geometry" />
        </mxCell>
        <mxCell id="ZlMzDz9N2ERT_qik_gIG-12" value="Médecine" style="rounded=0;whiteSpace=wrap;html=1;fillColor=#f5f5f5;fontColor=#333333;strokeColor=#666666;" parent="1" vertex="1">
          <mxGeometry x="230" y="60" width="140" height="40" as="geometry" />
        </mxCell>
        <mxCell id="ZlMzDz9N2ERT_qik_gIG-15" value="Chirurgie" style="rounded=0;whiteSpace=wrap;html=1;fillColor=#dae8fc;strokeColor=#6c8ebf;" parent="1" vertex="1">
          <mxGeometry x="370" y="60" width="160" height="40" as="geometry" />
        </mxCell>
        <mxCell id="ZlMzDz9N2ERT_qik_gIG-17" value="Réa" style="rounded=0;whiteSpace=wrap;html=1;fillColor=#fff2cc;strokeColor=#d6b656;" parent="1" vertex="1">
          <mxGeometry x="610" y="60" width="110" height="40" as="geometry" />
        </mxCell>
        <mxCell id="ZlMzDz9N2ERT_qik_gIG-18" value="Chirurgie" style="rounded=0;whiteSpace=wrap;html=1;fillColor=#dae8fc;strokeColor=#6c8ebf;" parent="1" vertex="1">
          <mxGeometry x="720" y="60" width="130" height="40" as="geometry" />
        </mxCell>
        <mxCell id="ZlMzDz9N2ERT_qik_gIG-19" value="Bloc" style="rounded=0;whiteSpace=wrap;html=1;fillColor=#dae8fc;strokeColor=#6c8ebf;" parent="1" vertex="1">
          <mxGeometry x="530" y="60" width="80" height="40" as="geometry" />
        </mxCell>
        <mxCell id="ZlMzDz9N2ERT_qik_gIG-21" value="" style="endArrow=none;html=1;rounded=0;" parent="1" edge="1">
          <mxGeometry width="50" height="50" relative="1" as="geometry">
            <mxPoint x="40" y="355" as="sourcePoint" />
            <mxPoint x="940" y="355" as="targetPoint" />
          </mxGeometry>
        </mxCell>
        <mxCell id="ZlMzDz9N2ERT_qik_gIG-22" value="Phase" style="text;html=1;strokeColor=none;fillColor=none;align=center;verticalAlign=middle;whiteSpace=wrap;rounded=0;" parent="1" vertex="1">
          <mxGeometry x="40" y="390" width="90" height="30" as="geometry" />
        </mxCell>
        <mxCell id="ZlMzDz9N2ERT_qik_gIG-24" value="Domicile" style="rounded=0;whiteSpace=wrap;html=1;fillColor=#f5f5f5;fontColor=#333333;strokeColor=#666666;" parent="1" vertex="1">
          <mxGeometry x="150" y="385" width="60" height="40" as="geometry" />
        </mxCell>
        <mxCell id="ZlMzDz9N2ERT_qik_gIG-25" value="Séjour hospitalier" style="rounded=0;whiteSpace=wrap;html=1;fillColor=#f5f5f5;fontColor=#333333;strokeColor=#666666;" parent="1" vertex="1">
          <mxGeometry x="230" y="385" width="620" height="40" as="geometry" />
        </mxCell>
        <mxCell id="ZlMzDz9N2ERT_qik_gIG-26" value="Post" style="rounded=0;whiteSpace=wrap;html=1;fillColor=#f5f5f5;fontColor=#333333;strokeColor=#666666;" parent="1" vertex="1">
          <mxGeometry x="870" y="385" width="60" height="40" as="geometry" />
        </mxCell>
        <mxCell id="ZlMzDz9N2ERT_qik_gIG-27" value="Divers" style="rounded=0;whiteSpace=wrap;html=1;fillColor=#f5f5f5;fontColor=#333333;strokeColor=#666666;" parent="1" vertex="1">
          <mxGeometry x="870" y="60" width="60" height="40" as="geometry" />
        </mxCell>
        <mxCell id="ZlMzDz9N2ERT_qik_gIG-28" value="" style="endArrow=none;html=1;rounded=0;" parent="1" edge="1">
          <mxGeometry width="50" height="50" relative="1" as="geometry">
            <mxPoint x="40" y="460" as="sourcePoint" />
            <mxPoint x="940" y="460" as="targetPoint" />
          </mxGeometry>
        </mxCell>
        <mxCell id="ZlMzDz9N2ERT_qik_gIG-30" value="Épisode de soin" style="rounded=0;whiteSpace=wrap;html=1;fillColor=#f5f5f5;fontColor=#333333;strokeColor=#666666;" parent="1" vertex="1">
          <mxGeometry x="150" y="490" width="780" height="40" as="geometry" />
        </mxCell>
        <mxCell id="xtWPw4Z2ciHdG3AvV4Gy-1" value="Médecine" style="rounded=0;whiteSpace=wrap;html=1;fillColor=#f5f5f5;fontColor=#333333;strokeColor=#666666;" parent="1" vertex="1">
          <mxGeometry x="230" y="170" width="140" height="40" as="geometry" />
        </mxCell>
        <mxCell id="xtWPw4Z2ciHdG3AvV4Gy-2" value="Chirurgie" style="rounded=0;whiteSpace=wrap;html=1;fillColor=#dae8fc;strokeColor=#6c8ebf;" parent="1" vertex="1">
          <mxGeometry x="370" y="170" width="240" height="40" as="geometry" />
        </mxCell>
        <mxCell id="xtWPw4Z2ciHdG3AvV4Gy-3" value="Réa" style="rounded=0;whiteSpace=wrap;html=1;fillColor=#fff2cc;strokeColor=#d6b656;" parent="1" vertex="1">
          <mxGeometry x="610" y="170" width="110" height="40" as="geometry" />
        </mxCell>
        <mxCell id="xtWPw4Z2ciHdG3AvV4Gy-4" value="Chirurgie" style="rounded=0;whiteSpace=wrap;html=1;fillColor=#dae8fc;strokeColor=#6c8ebf;" parent="1" vertex="1">
          <mxGeometry x="720" y="170" width="130" height="40" as="geometry" />
        </mxCell>
        <mxCell id="xtWPw4Z2ciHdG3AvV4Gy-5" value="&lt;div&gt;Responsabilité&lt;/div&gt;&lt;div&gt;médicale&lt;br&gt;&lt;/div&gt;" style="text;html=1;strokeColor=none;fillColor=none;align=center;verticalAlign=middle;whiteSpace=wrap;rounded=0;" parent="1" vertex="1">
          <mxGeometry x="40" y="175" width="90" height="30" as="geometry" />
        </mxCell>
        <mxCell id="xtWPw4Z2ciHdG3AvV4Gy-6" value="" style="endArrow=none;html=1;rounded=0;" parent="1" edge="1">
          <mxGeometry width="50" height="50" relative="1" as="geometry">
            <mxPoint x="40" y="250" as="sourcePoint" />
            <mxPoint x="940" y="250" as="targetPoint" />
          </mxGeometry>
        </mxCell>
      </root>
    </mxGraphModel>
  </diagram>
  <diagram id="lIMN_B_zNBDJnd0MX2Uh" name="Episode de soin unique">
    <mxGraphModel dx="868" dy="450" grid="1" gridSize="10" guides="1" tooltips="1" connect="1" arrows="1" fold="1" page="1" pageScale="1" pageWidth="1169" pageHeight="827" math="0" shadow="0">
      <root>
        <mxCell id="0" />
        <mxCell id="1" parent="0" />
        <mxCell id="UXsk0F1bjVOPh84byK9C-22" value="Phase" style="text;html=1;strokeColor=none;fillColor=none;align=center;verticalAlign=middle;whiteSpace=wrap;rounded=0;" parent="1" vertex="1">
          <mxGeometry x="40" y="280" width="90" height="30" as="geometry" />
        </mxCell>
        <mxCell id="UXsk0F1bjVOPh84byK9C-23" value="Domicile" style="rounded=0;whiteSpace=wrap;html=1;fillColor=#f5f5f5;fontColor=#333333;strokeColor=#666666;" parent="1" vertex="1">
          <mxGeometry x="150" y="275" width="60" height="40" as="geometry" />
        </mxCell>
        <mxCell id="UXsk0F1bjVOPh84byK9C-24" value="Séjour hospitalier MCO" style="rounded=0;whiteSpace=wrap;html=1;fillColor=#f5f5f5;fontColor=#333333;strokeColor=#666666;" parent="1" vertex="1">
          <mxGeometry x="210" y="275" width="240" height="40" as="geometry" />
        </mxCell>
        <mxCell id="UXsk0F1bjVOPh84byK9C-25" value="Post" style="rounded=0;whiteSpace=wrap;html=1;fillColor=#f5f5f5;fontColor=#333333;strokeColor=#666666;" parent="1" vertex="1">
          <mxGeometry x="870" y="275" width="60" height="40" as="geometry" />
        </mxCell>
        <mxCell id="UXsk0F1bjVOPh84byK9C-27" value="" style="endArrow=none;html=1;rounded=0;" parent="1" edge="1">
          <mxGeometry width="50" height="50" relative="1" as="geometry">
            <mxPoint x="40" y="350" as="sourcePoint" />
            <mxPoint x="940" y="350" as="targetPoint" />
          </mxGeometry>
        </mxCell>
        <mxCell id="UXsk0F1bjVOPh84byK9C-28" value="Épisode de soin comportant une hospitalisation unique" style="rounded=0;whiteSpace=wrap;html=1;fillColor=#f5f5f5;fontColor=#333333;strokeColor=#666666;" parent="1" vertex="1">
          <mxGeometry x="150" y="380" width="780" height="40" as="geometry" />
        </mxCell>
        <mxCell id="UXsk0F1bjVOPh84byK9C-29" value="&lt;div&gt;Séjour hospitalier SSR&lt;/div&gt;" style="rounded=0;whiteSpace=wrap;html=1;fillColor=#f5f5f5;fontColor=#333333;strokeColor=#666666;" parent="1" vertex="1">
          <mxGeometry x="450" y="275" width="420" height="40" as="geometry" />
        </mxCell>
      </root>
    </mxGraphModel>
  </diagram>
  <diagram id="65Gd8eaDHzBstC3g0zvk" name="Hospi distinctes">
    <mxGraphModel dx="868" dy="450" grid="1" gridSize="10" guides="1" tooltips="1" connect="1" arrows="1" fold="1" page="1" pageScale="1" pageWidth="1169" pageHeight="827" math="0" shadow="0">
      <root>
        <mxCell id="0" />
        <mxCell id="1" parent="0" />
        <mxCell id="DsuM0jxjOsr0_6hjhaAQ-1" value="Phase" style="text;html=1;strokeColor=none;fillColor=none;align=center;verticalAlign=middle;whiteSpace=wrap;rounded=0;" parent="1" vertex="1">
          <mxGeometry x="40" y="280" width="90" height="30" as="geometry" />
        </mxCell>
        <mxCell id="DsuM0jxjOsr0_6hjhaAQ-2" value="Domicile" style="rounded=0;whiteSpace=wrap;html=1;fillColor=#f5f5f5;fontColor=#333333;strokeColor=#666666;" parent="1" vertex="1">
          <mxGeometry x="150" y="275" width="60" height="40" as="geometry" />
        </mxCell>
        <mxCell id="DsuM0jxjOsr0_6hjhaAQ-3" value="Séjour hospitalier 1" style="rounded=0;whiteSpace=wrap;html=1;fillColor=#f5f5f5;fontColor=#333333;strokeColor=#666666;" parent="1" vertex="1">
          <mxGeometry x="210" y="275" width="240" height="40" as="geometry" />
        </mxCell>
        <mxCell id="DsuM0jxjOsr0_6hjhaAQ-4" value="Post" style="rounded=0;whiteSpace=wrap;html=1;fillColor=#f5f5f5;fontColor=#333333;strokeColor=#666666;" parent="1" vertex="1">
          <mxGeometry x="870" y="275" width="60" height="40" as="geometry" />
        </mxCell>
        <mxCell id="DsuM0jxjOsr0_6hjhaAQ-5" value="" style="endArrow=none;html=1;rounded=0;" parent="1" edge="1">
          <mxGeometry width="50" height="50" relative="1" as="geometry">
            <mxPoint x="40" y="350" as="sourcePoint" />
            <mxPoint x="940" y="350" as="targetPoint" />
          </mxGeometry>
        </mxCell>
        <mxCell id="DsuM0jxjOsr0_6hjhaAQ-6" value="Épisode de soin comportant des hospitalisations distinctes" style="rounded=0;whiteSpace=wrap;html=1;fillColor=#f5f5f5;fontColor=#333333;strokeColor=#666666;" parent="1" vertex="1">
          <mxGeometry x="150" y="380" width="780" height="40" as="geometry" />
        </mxCell>
        <mxCell id="DsuM0jxjOsr0_6hjhaAQ-7" value="Séjour hospitalier 2" style="rounded=0;whiteSpace=wrap;html=1;fillColor=#f5f5f5;fontColor=#333333;strokeColor=#666666;" parent="1" vertex="1">
          <mxGeometry x="640" y="275" width="230" height="40" as="geometry" />
        </mxCell>
        <mxCell id="EoAcuV6kQIZJaiP2YZ8R-1" value="Domicile" style="rounded=0;whiteSpace=wrap;html=1;fillColor=#f5f5f5;fontColor=#333333;strokeColor=#666666;" parent="1" vertex="1">
          <mxGeometry x="450" y="275" width="60" height="40" as="geometry" />
        </mxCell>
        <mxCell id="EoAcuV6kQIZJaiP2YZ8R-2" value="Domicile" style="rounded=0;whiteSpace=wrap;html=1;fillColor=#f5f5f5;fontColor=#333333;strokeColor=#666666;" parent="1" vertex="1">
          <mxGeometry x="580" y="275" width="60" height="40" as="geometry" />
        </mxCell>
      </root>
    </mxGraphModel>
  </diagram>
  <diagram id="7lif0bFpELwiXv7SbKHR" name="Processus">
    <mxGraphModel dx="868" dy="450" grid="1" gridSize="10" guides="1" tooltips="1" connect="1" arrows="1" fold="1" page="1" pageScale="1" pageWidth="1169" pageHeight="827" math="0" shadow="0">
      <root>
        <mxCell id="0" />
        <mxCell id="1" parent="0" />
        <mxCell id="nbwg_CrloGDRQxkNsdnl-7" value="Pré-admission" style="shape=step;perimeter=stepPerimeter;whiteSpace=wrap;html=1;fixedSize=1;fillColor=#f5f5f5;fontColor=#333333;strokeColor=#666666;" parent="1" vertex="1">
          <mxGeometry x="100" y="130" width="140" height="40" as="geometry" />
        </mxCell>
        <mxCell id="nbwg_CrloGDRQxkNsdnl-9" value="Admission" style="shape=step;perimeter=stepPerimeter;whiteSpace=wrap;html=1;fixedSize=1;fillColor=#f5f5f5;fontColor=#333333;strokeColor=#666666;" parent="1" vertex="1">
          <mxGeometry x="250" y="130" width="120" height="40" as="geometry" />
        </mxCell>
        <mxCell id="nbwg_CrloGDRQxkNsdnl-10" value="Soins" style="shape=step;perimeter=stepPerimeter;whiteSpace=wrap;html=1;fixedSize=1;fillColor=#f5f5f5;fontColor=#333333;strokeColor=#666666;" parent="1" vertex="1">
          <mxGeometry x="380" y="130" width="100" height="40" as="geometry" />
        </mxCell>
        <mxCell id="nbwg_CrloGDRQxkNsdnl-11" value="Sortie" style="shape=step;perimeter=stepPerimeter;whiteSpace=wrap;html=1;fixedSize=1;fillColor=#f5f5f5;fontColor=#333333;strokeColor=#666666;" parent="1" vertex="1">
          <mxGeometry x="485" y="130" width="100" height="40" as="geometry" />
        </mxCell>
        <mxCell id="nbwg_CrloGDRQxkNsdnl-12" value="Facturation" style="shape=step;perimeter=stepPerimeter;whiteSpace=wrap;html=1;fixedSize=1;fillColor=#f5f5f5;fontColor=#333333;strokeColor=#666666;" parent="1" vertex="1">
          <mxGeometry x="590" y="130" width="120" height="40" as="geometry" />
        </mxCell>
        <mxCell id="nbwg_CrloGDRQxkNsdnl-13" value="Encaissement" style="shape=step;perimeter=stepPerimeter;whiteSpace=wrap;html=1;fixedSize=1;fillColor=#f5f5f5;fontColor=#333333;strokeColor=#666666;" parent="1" vertex="1">
          <mxGeometry x="710" y="130" width="150" height="40" as="geometry" />
        </mxCell>
      </root>
    </mxGraphModel>
  </diagram>
  <diagram id="bNEe_sKpY2v2NBAdxDJl" name="GAP">
    <mxGraphModel dx="868" dy="450" grid="1" gridSize="10" guides="1" tooltips="1" connect="1" arrows="1" fold="1" page="1" pageScale="1" pageWidth="1169" pageHeight="827" math="0" shadow="0">
      <root>
        <mxCell id="0" />
        <mxCell id="1" parent="0" />
        <mxCell id="dKnAnU0HhBAgE-wCjLLG-1" value="Venue" style="rounded=0;whiteSpace=wrap;html=1;fillColor=#f5f5f5;fontColor=#333333;strokeColor=#666666;" parent="1" vertex="1">
          <mxGeometry x="210" y="120" width="450" height="40" as="geometry" />
        </mxCell>
        <mxCell id="dKnAnU0HhBAgE-wCjLLG-2" value="" style="endArrow=none;html=1;rounded=0;" parent="1" edge="1">
          <mxGeometry width="50" height="50" relative="1" as="geometry">
            <mxPoint x="210" y="130" as="sourcePoint" />
            <mxPoint x="210" y="80" as="targetPoint" />
          </mxGeometry>
        </mxCell>
        <mxCell id="dKnAnU0HhBAgE-wCjLLG-5" value="Admission" style="text;html=1;strokeColor=none;fillColor=none;align=center;verticalAlign=middle;whiteSpace=wrap;rounded=0;" parent="1" vertex="1">
          <mxGeometry x="190" y="50" width="60" height="30" as="geometry" />
        </mxCell>
        <mxCell id="dKnAnU0HhBAgE-wCjLLG-4" value="Sortie" style="text;html=1;strokeColor=none;fillColor=none;align=center;verticalAlign=middle;whiteSpace=wrap;rounded=0;" parent="1" vertex="1">
          <mxGeometry x="630" y="50" width="60" height="30" as="geometry" />
        </mxCell>
        <mxCell id="dKnAnU0HhBAgE-wCjLLG-6" value="" style="endArrow=none;html=1;rounded=0;" parent="1" target="dKnAnU0HhBAgE-wCjLLG-4" edge="1">
          <mxGeometry width="50" height="50" relative="1" as="geometry">
            <mxPoint x="660" y="130" as="sourcePoint" />
            <mxPoint x="660" y="80" as="targetPoint" />
          </mxGeometry>
        </mxCell>
        <mxCell id="dKnAnU0HhBAgE-wCjLLG-7" value="Épisode de facturation" style="rounded=0;whiteSpace=wrap;html=1;fillColor=#dae8fc;strokeColor=#6c8ebf;" parent="1" vertex="1">
          <mxGeometry x="210" y="200" width="290" height="40" as="geometry" />
        </mxCell>
        <mxCell id="dKnAnU0HhBAgE-wCjLLG-8" value="Épisode de facturation" style="rounded=0;whiteSpace=wrap;html=1;fillColor=#dae8fc;strokeColor=#6c8ebf;" parent="1" vertex="1">
          <mxGeometry x="510" y="200" width="150" height="40" as="geometry" />
        </mxCell>
        <mxCell id="dKnAnU0HhBAgE-wCjLLG-9" value="Période de facturation" style="rounded=0;whiteSpace=wrap;html=1;fillColor=#d5e8d4;strokeColor=#82b366;" parent="1" vertex="1">
          <mxGeometry x="210" y="280" width="140" height="40" as="geometry" />
        </mxCell>
        <mxCell id="dKnAnU0HhBAgE-wCjLLG-10" value="Période de facturation" style="rounded=0;whiteSpace=wrap;html=1;fillColor=#d5e8d4;strokeColor=#82b366;" parent="1" vertex="1">
          <mxGeometry x="360" y="280" width="140" height="40" as="geometry" />
        </mxCell>
        <mxCell id="dKnAnU0HhBAgE-wCjLLG-11" value="Période de facturation" style="rounded=0;whiteSpace=wrap;html=1;fillColor=#d5e8d4;strokeColor=#82b366;" parent="1" vertex="1">
          <mxGeometry x="515" y="280" width="140" height="40" as="geometry" />
        </mxCell>
        <mxCell id="dKnAnU0HhBAgE-wCjLLG-12" value="Prestations" style="rounded=0;whiteSpace=wrap;html=1;fillColor=#ffe6cc;strokeColor=#d79b00;" parent="1" vertex="1">
          <mxGeometry x="230" y="360" width="90" height="30" as="geometry" />
        </mxCell>
        <mxCell id="dKnAnU0HhBAgE-wCjLLG-13" value="Prestations" style="rounded=0;whiteSpace=wrap;html=1;fillColor=#ffe6cc;strokeColor=#d79b00;" parent="1" vertex="1">
          <mxGeometry x="240" y="370" width="90" height="30" as="geometry" />
        </mxCell>
        <mxCell id="dKnAnU0HhBAgE-wCjLLG-14" value="Prestations" style="rounded=0;whiteSpace=wrap;html=1;fillColor=#ffe6cc;strokeColor=#d79b00;" parent="1" vertex="1">
          <mxGeometry x="250" y="380" width="90" height="30" as="geometry" />
        </mxCell>
        <mxCell id="dKnAnU0HhBAgE-wCjLLG-15" value="Prestations" style="rounded=0;whiteSpace=wrap;html=1;fillColor=#ffe6cc;strokeColor=#d79b00;" parent="1" vertex="1">
          <mxGeometry x="380" y="360" width="90" height="30" as="geometry" />
        </mxCell>
        <mxCell id="dKnAnU0HhBAgE-wCjLLG-16" value="Prestations" style="rounded=0;whiteSpace=wrap;html=1;fillColor=#ffe6cc;strokeColor=#d79b00;" parent="1" vertex="1">
          <mxGeometry x="390" y="370" width="90" height="30" as="geometry" />
        </mxCell>
        <mxCell id="dKnAnU0HhBAgE-wCjLLG-17" value="Prestations" style="rounded=0;whiteSpace=wrap;html=1;fillColor=#ffe6cc;strokeColor=#d79b00;" parent="1" vertex="1">
          <mxGeometry x="400" y="380" width="90" height="30" as="geometry" />
        </mxCell>
        <mxCell id="dKnAnU0HhBAgE-wCjLLG-18" value="Prestations" style="rounded=0;whiteSpace=wrap;html=1;fillColor=#ffe6cc;strokeColor=#d79b00;" parent="1" vertex="1">
          <mxGeometry x="530" y="360" width="90" height="30" as="geometry" />
        </mxCell>
        <mxCell id="dKnAnU0HhBAgE-wCjLLG-19" value="Prestations" style="rounded=0;whiteSpace=wrap;html=1;fillColor=#ffe6cc;strokeColor=#d79b00;" parent="1" vertex="1">
          <mxGeometry x="540" y="370" width="90" height="30" as="geometry" />
        </mxCell>
        <mxCell id="dKnAnU0HhBAgE-wCjLLG-20" value="Prestations" style="rounded=0;whiteSpace=wrap;html=1;fillColor=#ffe6cc;strokeColor=#d79b00;" parent="1" vertex="1">
          <mxGeometry x="550" y="380" width="90" height="30" as="geometry" />
        </mxCell>
        <mxCell id="dKnAnU0HhBAgE-wCjLLG-21" value="Facture tiers" style="shape=document;whiteSpace=wrap;html=1;boundedLbl=1;fillColor=#f8cecc;strokeColor=#b85450;" parent="1" vertex="1">
          <mxGeometry x="235" y="440" width="80" height="50" as="geometry" />
        </mxCell>
        <mxCell id="dKnAnU0HhBAgE-wCjLLG-22" value="Facture tiers" style="shape=document;whiteSpace=wrap;html=1;boundedLbl=1;fillColor=#f8cecc;strokeColor=#b85450;" parent="1" vertex="1">
          <mxGeometry x="245" y="450" width="80" height="50" as="geometry" />
        </mxCell>
        <mxCell id="dKnAnU0HhBAgE-wCjLLG-23" value="Facture tiers" style="shape=document;whiteSpace=wrap;html=1;boundedLbl=1;fillColor=#f8cecc;strokeColor=#b85450;" parent="1" vertex="1">
          <mxGeometry x="255" y="460" width="80" height="50" as="geometry" />
        </mxCell>
        <mxCell id="dKnAnU0HhBAgE-wCjLLG-24" value="Facture tiers" style="shape=document;whiteSpace=wrap;html=1;boundedLbl=1;fillColor=#f8cecc;strokeColor=#b85450;" parent="1" vertex="1">
          <mxGeometry x="385" y="440" width="80" height="50" as="geometry" />
        </mxCell>
        <mxCell id="dKnAnU0HhBAgE-wCjLLG-25" value="Facture tiers" style="shape=document;whiteSpace=wrap;html=1;boundedLbl=1;fillColor=#f8cecc;strokeColor=#b85450;" parent="1" vertex="1">
          <mxGeometry x="395" y="450" width="80" height="50" as="geometry" />
        </mxCell>
        <mxCell id="dKnAnU0HhBAgE-wCjLLG-26" value="Facture tiers" style="shape=document;whiteSpace=wrap;html=1;boundedLbl=1;fillColor=#f8cecc;strokeColor=#b85450;" parent="1" vertex="1">
          <mxGeometry x="405" y="460" width="80" height="50" as="geometry" />
        </mxCell>
        <mxCell id="dKnAnU0HhBAgE-wCjLLG-27" value="Facture tiers" style="shape=document;whiteSpace=wrap;html=1;boundedLbl=1;fillColor=#f8cecc;strokeColor=#b85450;" parent="1" vertex="1">
          <mxGeometry x="535" y="440" width="80" height="50" as="geometry" />
        </mxCell>
        <mxCell id="dKnAnU0HhBAgE-wCjLLG-28" value="Facture tiers" style="shape=document;whiteSpace=wrap;html=1;boundedLbl=1;fillColor=#f8cecc;strokeColor=#b85450;" parent="1" vertex="1">
          <mxGeometry x="545" y="450" width="80" height="50" as="geometry" />
        </mxCell>
        <mxCell id="dKnAnU0HhBAgE-wCjLLG-29" value="Facture tiers" style="shape=document;whiteSpace=wrap;html=1;boundedLbl=1;fillColor=#f8cecc;strokeColor=#b85450;" parent="1" vertex="1">
          <mxGeometry x="555" y="460" width="80" height="50" as="geometry" />
        </mxCell>
      </root>
    </mxGraphModel>
  </diagram>
  <diagram id="uw6DElRrQdlDEeaQybxA" name="Planif bloc">
    <mxGraphModel dx="1021" dy="529" grid="1" gridSize="10" guides="1" tooltips="1" connect="1" arrows="1" fold="1" page="1" pageScale="1" pageWidth="1169" pageHeight="827" math="0" shadow="0">
      <root>
        <mxCell id="0" />
        <mxCell id="1" parent="0" />
        <mxCell id="VIZ3PdG-3f_oEq-HjuZ--63" value="" style="group" vertex="1" connectable="0" parent="1">
          <mxGeometry x="100" y="70" width="820" height="330" as="geometry" />
        </mxCell>
        <mxCell id="VIZ3PdG-3f_oEq-HjuZ--1" value="10h" style="text;html=1;strokeColor=none;fillColor=none;align=center;verticalAlign=middle;whiteSpace=wrap;rounded=0;fontStyle=1" vertex="1" parent="VIZ3PdG-3f_oEq-HjuZ--63">
          <mxGeometry y="240" width="60" height="30" as="geometry" />
        </mxCell>
        <mxCell id="VIZ3PdG-3f_oEq-HjuZ--2" value="9h" style="text;html=1;strokeColor=none;fillColor=none;align=center;verticalAlign=middle;whiteSpace=wrap;rounded=0;fontStyle=1" vertex="1" parent="VIZ3PdG-3f_oEq-HjuZ--63">
          <mxGeometry y="270" width="60" height="30" as="geometry" />
        </mxCell>
        <mxCell id="VIZ3PdG-3f_oEq-HjuZ--3" value="12h" style="text;html=1;strokeColor=none;fillColor=none;align=center;verticalAlign=middle;whiteSpace=wrap;rounded=0;fontStyle=1" vertex="1" parent="VIZ3PdG-3f_oEq-HjuZ--63">
          <mxGeometry y="180" width="60" height="30" as="geometry" />
        </mxCell>
        <mxCell id="VIZ3PdG-3f_oEq-HjuZ--4" value="&lt;div&gt;11h&lt;/div&gt;" style="text;html=1;strokeColor=none;fillColor=none;align=center;verticalAlign=middle;whiteSpace=wrap;rounded=0;fontStyle=1" vertex="1" parent="VIZ3PdG-3f_oEq-HjuZ--63">
          <mxGeometry y="210" width="60" height="30" as="geometry" />
        </mxCell>
        <mxCell id="VIZ3PdG-3f_oEq-HjuZ--5" value="14h" style="text;html=1;strokeColor=none;fillColor=none;align=center;verticalAlign=middle;whiteSpace=wrap;rounded=0;fontStyle=1" vertex="1" parent="VIZ3PdG-3f_oEq-HjuZ--63">
          <mxGeometry y="120" width="60" height="30" as="geometry" />
        </mxCell>
        <mxCell id="VIZ3PdG-3f_oEq-HjuZ--6" value="13h" style="text;html=1;strokeColor=none;fillColor=none;align=center;verticalAlign=middle;whiteSpace=wrap;rounded=0;fontStyle=1" vertex="1" parent="VIZ3PdG-3f_oEq-HjuZ--63">
          <mxGeometry y="150" width="60" height="30" as="geometry" />
        </mxCell>
        <mxCell id="VIZ3PdG-3f_oEq-HjuZ--7" value="&lt;div&gt;16h&lt;/div&gt;" style="text;html=1;strokeColor=none;fillColor=none;align=center;verticalAlign=middle;whiteSpace=wrap;rounded=0;fontStyle=1" vertex="1" parent="VIZ3PdG-3f_oEq-HjuZ--63">
          <mxGeometry y="60" width="60" height="30" as="geometry" />
        </mxCell>
        <mxCell id="VIZ3PdG-3f_oEq-HjuZ--8" value="15h" style="text;html=1;strokeColor=none;fillColor=none;align=center;verticalAlign=middle;whiteSpace=wrap;rounded=0;fontStyle=1" vertex="1" parent="VIZ3PdG-3f_oEq-HjuZ--63">
          <mxGeometry y="90" width="60" height="30" as="geometry" />
        </mxCell>
        <mxCell id="VIZ3PdG-3f_oEq-HjuZ--9" value="&lt;div&gt;17h&lt;/div&gt;" style="text;html=1;strokeColor=none;fillColor=none;align=center;verticalAlign=middle;whiteSpace=wrap;rounded=0;fontStyle=1" vertex="1" parent="VIZ3PdG-3f_oEq-HjuZ--63">
          <mxGeometry y="30" width="60" height="30" as="geometry" />
        </mxCell>
        <mxCell id="VIZ3PdG-3f_oEq-HjuZ--10" value="Lundi" style="text;html=1;strokeColor=none;fillColor=none;align=center;verticalAlign=middle;whiteSpace=wrap;rounded=0;fontStyle=1" vertex="1" parent="VIZ3PdG-3f_oEq-HjuZ--63">
          <mxGeometry x="110" y="300" width="60" height="30" as="geometry" />
        </mxCell>
        <mxCell id="VIZ3PdG-3f_oEq-HjuZ--11" value="&lt;div&gt;Mardi&lt;/div&gt;" style="text;html=1;strokeColor=none;fillColor=none;align=center;verticalAlign=middle;whiteSpace=wrap;rounded=0;fontStyle=1" vertex="1" parent="VIZ3PdG-3f_oEq-HjuZ--63">
          <mxGeometry x="270" y="300" width="60" height="30" as="geometry" />
        </mxCell>
        <mxCell id="VIZ3PdG-3f_oEq-HjuZ--12" value="Lundi" style="text;html=1;strokeColor=none;fillColor=none;align=center;verticalAlign=middle;whiteSpace=wrap;rounded=0;fontStyle=1" vertex="1" parent="VIZ3PdG-3f_oEq-HjuZ--63">
          <mxGeometry x="500" y="300" width="60" height="30" as="geometry" />
        </mxCell>
        <mxCell id="VIZ3PdG-3f_oEq-HjuZ--13" value="&lt;div&gt;Mardi&lt;/div&gt;" style="text;html=1;strokeColor=none;fillColor=none;align=center;verticalAlign=middle;whiteSpace=wrap;rounded=0;fontStyle=1" vertex="1" parent="VIZ3PdG-3f_oEq-HjuZ--63">
          <mxGeometry x="660" y="300" width="60" height="30" as="geometry" />
        </mxCell>
        <mxCell id="VIZ3PdG-3f_oEq-HjuZ--14" value="Salle 1" style="text;html=1;strokeColor=none;fillColor=none;align=center;verticalAlign=middle;whiteSpace=wrap;rounded=0;fontStyle=1" vertex="1" parent="VIZ3PdG-3f_oEq-HjuZ--63">
          <mxGeometry x="70" width="60" height="30" as="geometry" />
        </mxCell>
        <mxCell id="VIZ3PdG-3f_oEq-HjuZ--15" value="Salle 2" style="text;html=1;strokeColor=none;fillColor=none;align=center;verticalAlign=middle;whiteSpace=wrap;rounded=0;fontStyle=1" vertex="1" parent="VIZ3PdG-3f_oEq-HjuZ--63">
          <mxGeometry x="130" width="60" height="30" as="geometry" />
        </mxCell>
        <mxCell id="VIZ3PdG-3f_oEq-HjuZ--16" value="Salle 1" style="text;html=1;strokeColor=none;fillColor=none;align=center;verticalAlign=middle;whiteSpace=wrap;rounded=0;fontStyle=1" vertex="1" parent="VIZ3PdG-3f_oEq-HjuZ--63">
          <mxGeometry x="240" width="60" height="30" as="geometry" />
        </mxCell>
        <mxCell id="VIZ3PdG-3f_oEq-HjuZ--17" value="Salle 2" style="text;html=1;strokeColor=none;fillColor=none;align=center;verticalAlign=middle;whiteSpace=wrap;rounded=0;fontStyle=1" vertex="1" parent="VIZ3PdG-3f_oEq-HjuZ--63">
          <mxGeometry x="300" width="60" height="30" as="geometry" />
        </mxCell>
        <mxCell id="VIZ3PdG-3f_oEq-HjuZ--18" value="Salle 1" style="text;html=1;strokeColor=none;fillColor=none;align=center;verticalAlign=middle;whiteSpace=wrap;rounded=0;fontStyle=1" vertex="1" parent="VIZ3PdG-3f_oEq-HjuZ--63">
          <mxGeometry x="450" width="60" height="30" as="geometry" />
        </mxCell>
        <mxCell id="VIZ3PdG-3f_oEq-HjuZ--19" value="Salle 2" style="text;html=1;strokeColor=none;fillColor=none;align=center;verticalAlign=middle;whiteSpace=wrap;rounded=0;fontStyle=1" vertex="1" parent="VIZ3PdG-3f_oEq-HjuZ--63">
          <mxGeometry x="520" width="60" height="30" as="geometry" />
        </mxCell>
        <mxCell id="VIZ3PdG-3f_oEq-HjuZ--20" value="Salle 1" style="text;html=1;strokeColor=none;fillColor=none;align=center;verticalAlign=middle;whiteSpace=wrap;rounded=0;fontStyle=1" vertex="1" parent="VIZ3PdG-3f_oEq-HjuZ--63">
          <mxGeometry x="620" width="60" height="30" as="geometry" />
        </mxCell>
        <mxCell id="VIZ3PdG-3f_oEq-HjuZ--21" value="Salle 2" style="text;html=1;strokeColor=none;fillColor=none;align=center;verticalAlign=middle;whiteSpace=wrap;rounded=0;fontStyle=1" vertex="1" parent="VIZ3PdG-3f_oEq-HjuZ--63">
          <mxGeometry x="690" width="60" height="30" as="geometry" />
        </mxCell>
        <mxCell id="VIZ3PdG-3f_oEq-HjuZ--22" value="" style="endArrow=none;dashed=1;html=1;rounded=0;exitX=1;exitY=0.5;exitDx=0;exitDy=0;" edge="1" parent="VIZ3PdG-3f_oEq-HjuZ--63" source="VIZ3PdG-3f_oEq-HjuZ--9">
          <mxGeometry width="50" height="50" relative="1" as="geometry">
            <mxPoint x="320" y="190" as="sourcePoint" />
            <mxPoint x="380" y="45" as="targetPoint" />
          </mxGeometry>
        </mxCell>
        <mxCell id="VIZ3PdG-3f_oEq-HjuZ--23" value="" style="endArrow=none;dashed=1;html=1;rounded=0;exitX=1;exitY=0.5;exitDx=0;exitDy=0;" edge="1" parent="VIZ3PdG-3f_oEq-HjuZ--63">
          <mxGeometry width="50" height="50" relative="1" as="geometry">
            <mxPoint x="60" y="74.5" as="sourcePoint" />
            <mxPoint x="380" y="75" as="targetPoint" />
          </mxGeometry>
        </mxCell>
        <mxCell id="VIZ3PdG-3f_oEq-HjuZ--24" value="" style="endArrow=none;dashed=1;html=1;rounded=0;exitX=1;exitY=0.5;exitDx=0;exitDy=0;" edge="1" parent="VIZ3PdG-3f_oEq-HjuZ--63">
          <mxGeometry width="50" height="50" relative="1" as="geometry">
            <mxPoint x="60" y="104.5" as="sourcePoint" />
            <mxPoint x="380" y="105" as="targetPoint" />
          </mxGeometry>
        </mxCell>
        <mxCell id="VIZ3PdG-3f_oEq-HjuZ--25" value="" style="endArrow=none;dashed=1;html=1;rounded=0;exitX=1;exitY=0.5;exitDx=0;exitDy=0;" edge="1" parent="VIZ3PdG-3f_oEq-HjuZ--63">
          <mxGeometry width="50" height="50" relative="1" as="geometry">
            <mxPoint x="60" y="134.5" as="sourcePoint" />
            <mxPoint x="380" y="135" as="targetPoint" />
          </mxGeometry>
        </mxCell>
        <mxCell id="VIZ3PdG-3f_oEq-HjuZ--26" value="" style="endArrow=none;dashed=1;html=1;rounded=0;exitX=1;exitY=0.5;exitDx=0;exitDy=0;" edge="1" parent="VIZ3PdG-3f_oEq-HjuZ--63">
          <mxGeometry width="50" height="50" relative="1" as="geometry">
            <mxPoint x="60" y="164.5" as="sourcePoint" />
            <mxPoint x="380" y="165" as="targetPoint" />
          </mxGeometry>
        </mxCell>
        <mxCell id="VIZ3PdG-3f_oEq-HjuZ--27" value="" style="endArrow=none;dashed=1;html=1;rounded=0;exitX=1;exitY=0.5;exitDx=0;exitDy=0;" edge="1" parent="VIZ3PdG-3f_oEq-HjuZ--63">
          <mxGeometry width="50" height="50" relative="1" as="geometry">
            <mxPoint x="60" y="194.5" as="sourcePoint" />
            <mxPoint x="380" y="195" as="targetPoint" />
          </mxGeometry>
        </mxCell>
        <mxCell id="VIZ3PdG-3f_oEq-HjuZ--28" value="" style="endArrow=none;dashed=1;html=1;rounded=0;exitX=1;exitY=0.5;exitDx=0;exitDy=0;" edge="1" parent="VIZ3PdG-3f_oEq-HjuZ--63">
          <mxGeometry width="50" height="50" relative="1" as="geometry">
            <mxPoint x="60" y="224.5" as="sourcePoint" />
            <mxPoint x="380" y="225" as="targetPoint" />
          </mxGeometry>
        </mxCell>
        <mxCell id="VIZ3PdG-3f_oEq-HjuZ--29" value="" style="endArrow=none;dashed=1;html=1;rounded=0;exitX=1;exitY=0.5;exitDx=0;exitDy=0;" edge="1" parent="VIZ3PdG-3f_oEq-HjuZ--63">
          <mxGeometry width="50" height="50" relative="1" as="geometry">
            <mxPoint x="60" y="254.5" as="sourcePoint" />
            <mxPoint x="380" y="255" as="targetPoint" />
          </mxGeometry>
        </mxCell>
        <mxCell id="VIZ3PdG-3f_oEq-HjuZ--30" value="" style="endArrow=none;dashed=1;html=1;rounded=0;exitX=1;exitY=0.5;exitDx=0;exitDy=0;" edge="1" parent="VIZ3PdG-3f_oEq-HjuZ--63">
          <mxGeometry width="50" height="50" relative="1" as="geometry">
            <mxPoint x="60" y="284.5" as="sourcePoint" />
            <mxPoint x="380" y="285" as="targetPoint" />
          </mxGeometry>
        </mxCell>
        <mxCell id="VIZ3PdG-3f_oEq-HjuZ--31" value="" style="endArrow=none;dashed=1;html=1;rounded=0;exitX=1;exitY=0.5;exitDx=0;exitDy=0;" edge="1" parent="VIZ3PdG-3f_oEq-HjuZ--63">
          <mxGeometry width="50" height="50" relative="1" as="geometry">
            <mxPoint x="440" y="44.75" as="sourcePoint" />
            <mxPoint x="760" y="45" as="targetPoint" />
          </mxGeometry>
        </mxCell>
        <mxCell id="VIZ3PdG-3f_oEq-HjuZ--32" value="" style="endArrow=none;dashed=1;html=1;rounded=0;exitX=1;exitY=0.5;exitDx=0;exitDy=0;" edge="1" parent="VIZ3PdG-3f_oEq-HjuZ--63">
          <mxGeometry width="50" height="50" relative="1" as="geometry">
            <mxPoint x="440" y="74.25" as="sourcePoint" />
            <mxPoint x="760" y="75" as="targetPoint" />
          </mxGeometry>
        </mxCell>
        <mxCell id="VIZ3PdG-3f_oEq-HjuZ--33" value="" style="endArrow=none;dashed=1;html=1;rounded=0;exitX=1;exitY=0.5;exitDx=0;exitDy=0;" edge="1" parent="VIZ3PdG-3f_oEq-HjuZ--63">
          <mxGeometry width="50" height="50" relative="1" as="geometry">
            <mxPoint x="440" y="104.25" as="sourcePoint" />
            <mxPoint x="760" y="105" as="targetPoint" />
          </mxGeometry>
        </mxCell>
        <mxCell id="VIZ3PdG-3f_oEq-HjuZ--34" value="" style="endArrow=none;dashed=1;html=1;rounded=0;exitX=1;exitY=0.5;exitDx=0;exitDy=0;" edge="1" parent="VIZ3PdG-3f_oEq-HjuZ--63">
          <mxGeometry width="50" height="50" relative="1" as="geometry">
            <mxPoint x="440" y="134.25" as="sourcePoint" />
            <mxPoint x="760" y="135" as="targetPoint" />
          </mxGeometry>
        </mxCell>
        <mxCell id="VIZ3PdG-3f_oEq-HjuZ--35" value="" style="endArrow=none;dashed=1;html=1;rounded=0;exitX=1;exitY=0.5;exitDx=0;exitDy=0;" edge="1" parent="VIZ3PdG-3f_oEq-HjuZ--63">
          <mxGeometry width="50" height="50" relative="1" as="geometry">
            <mxPoint x="440" y="164.25" as="sourcePoint" />
            <mxPoint x="760" y="165" as="targetPoint" />
          </mxGeometry>
        </mxCell>
        <mxCell id="VIZ3PdG-3f_oEq-HjuZ--36" value="" style="endArrow=none;dashed=1;html=1;rounded=0;exitX=1;exitY=0.5;exitDx=0;exitDy=0;" edge="1" parent="VIZ3PdG-3f_oEq-HjuZ--63">
          <mxGeometry width="50" height="50" relative="1" as="geometry">
            <mxPoint x="440" y="194.25" as="sourcePoint" />
            <mxPoint x="760" y="195" as="targetPoint" />
          </mxGeometry>
        </mxCell>
        <mxCell id="VIZ3PdG-3f_oEq-HjuZ--37" value="" style="endArrow=none;dashed=1;html=1;rounded=0;exitX=1;exitY=0.5;exitDx=0;exitDy=0;" edge="1" parent="VIZ3PdG-3f_oEq-HjuZ--63">
          <mxGeometry width="50" height="50" relative="1" as="geometry">
            <mxPoint x="440" y="224.25" as="sourcePoint" />
            <mxPoint x="760" y="225" as="targetPoint" />
          </mxGeometry>
        </mxCell>
        <mxCell id="VIZ3PdG-3f_oEq-HjuZ--38" value="" style="endArrow=none;dashed=1;html=1;rounded=0;exitX=1;exitY=0.5;exitDx=0;exitDy=0;" edge="1" parent="VIZ3PdG-3f_oEq-HjuZ--63">
          <mxGeometry width="50" height="50" relative="1" as="geometry">
            <mxPoint x="440" y="254.25" as="sourcePoint" />
            <mxPoint x="760" y="255" as="targetPoint" />
          </mxGeometry>
        </mxCell>
        <mxCell id="VIZ3PdG-3f_oEq-HjuZ--39" value="" style="endArrow=none;dashed=1;html=1;rounded=0;exitX=1;exitY=0.5;exitDx=0;exitDy=0;" edge="1" parent="VIZ3PdG-3f_oEq-HjuZ--63">
          <mxGeometry width="50" height="50" relative="1" as="geometry">
            <mxPoint x="440" y="284.25" as="sourcePoint" />
            <mxPoint x="760" y="285" as="targetPoint" />
          </mxGeometry>
        </mxCell>
        <mxCell id="VIZ3PdG-3f_oEq-HjuZ--40" value="..." style="text;html=1;strokeColor=none;fillColor=none;align=center;verticalAlign=middle;whiteSpace=wrap;rounded=0;fontStyle=1" vertex="1" parent="VIZ3PdG-3f_oEq-HjuZ--63">
          <mxGeometry x="380" y="300" width="60" height="30" as="geometry" />
        </mxCell>
        <mxCell id="VIZ3PdG-3f_oEq-HjuZ--41" value="..." style="text;html=1;strokeColor=none;fillColor=none;align=center;verticalAlign=middle;whiteSpace=wrap;rounded=0;fontStyle=1" vertex="1" parent="VIZ3PdG-3f_oEq-HjuZ--63">
          <mxGeometry x="760" y="300" width="60" height="30" as="geometry" />
        </mxCell>
        <mxCell id="VIZ3PdG-3f_oEq-HjuZ--43" value="" style="endArrow=none;html=1;rounded=0;" edge="1" parent="VIZ3PdG-3f_oEq-HjuZ--63">
          <mxGeometry width="50" height="50" relative="1" as="geometry">
            <mxPoint x="60" y="310" as="sourcePoint" />
            <mxPoint x="60" y="20" as="targetPoint" />
          </mxGeometry>
        </mxCell>
        <mxCell id="VIZ3PdG-3f_oEq-HjuZ--44" value="" style="endArrow=none;html=1;rounded=0;" edge="1" parent="VIZ3PdG-3f_oEq-HjuZ--63">
          <mxGeometry width="50" height="50" relative="1" as="geometry">
            <mxPoint x="220" y="310" as="sourcePoint" />
            <mxPoint x="220" y="20" as="targetPoint" />
          </mxGeometry>
        </mxCell>
        <mxCell id="VIZ3PdG-3f_oEq-HjuZ--45" value="" style="endArrow=none;html=1;rounded=0;" edge="1" parent="VIZ3PdG-3f_oEq-HjuZ--63">
          <mxGeometry width="50" height="50" relative="1" as="geometry">
            <mxPoint x="380" y="310" as="sourcePoint" />
            <mxPoint x="380" y="20" as="targetPoint" />
          </mxGeometry>
        </mxCell>
        <mxCell id="VIZ3PdG-3f_oEq-HjuZ--46" value="" style="endArrow=none;html=1;rounded=0;" edge="1" parent="VIZ3PdG-3f_oEq-HjuZ--63">
          <mxGeometry width="50" height="50" relative="1" as="geometry">
            <mxPoint x="440" y="310" as="sourcePoint" />
            <mxPoint x="440" y="20" as="targetPoint" />
          </mxGeometry>
        </mxCell>
        <mxCell id="VIZ3PdG-3f_oEq-HjuZ--47" value="" style="endArrow=none;html=1;rounded=0;" edge="1" parent="VIZ3PdG-3f_oEq-HjuZ--63">
          <mxGeometry width="50" height="50" relative="1" as="geometry">
            <mxPoint x="600" y="310" as="sourcePoint" />
            <mxPoint x="600" y="20" as="targetPoint" />
          </mxGeometry>
        </mxCell>
        <mxCell id="VIZ3PdG-3f_oEq-HjuZ--48" value="" style="endArrow=none;html=1;rounded=0;" edge="1" parent="VIZ3PdG-3f_oEq-HjuZ--63">
          <mxGeometry width="50" height="50" relative="1" as="geometry">
            <mxPoint x="760" y="310" as="sourcePoint" />
            <mxPoint x="760" y="20" as="targetPoint" />
          </mxGeometry>
        </mxCell>
        <mxCell id="VIZ3PdG-3f_oEq-HjuZ--59" value="&lt;div&gt;Chirurgien 1&lt;/div&gt;" style="rounded=1;whiteSpace=wrap;html=1;fillColor=#f5f5f5;fontColor=#333333;strokeColor=#666666;" vertex="1" parent="VIZ3PdG-3f_oEq-HjuZ--63">
          <mxGeometry x="60" y="100" width="80" height="130" as="geometry" />
        </mxCell>
        <mxCell id="VIZ3PdG-3f_oEq-HjuZ--60" value="Chirurgien 3" style="rounded=1;whiteSpace=wrap;html=1;fillColor=#d5e8d4;strokeColor=#82b366;" vertex="1" parent="VIZ3PdG-3f_oEq-HjuZ--63">
          <mxGeometry x="140" y="120" width="80" height="170" as="geometry" />
        </mxCell>
        <mxCell id="VIZ3PdG-3f_oEq-HjuZ--64" value="Chirurgien2" style="rounded=1;whiteSpace=wrap;html=1;fillColor=#dae8fc;strokeColor=#6c8ebf;" vertex="1" parent="VIZ3PdG-3f_oEq-HjuZ--63">
          <mxGeometry x="60" y="230" width="80" height="60" as="geometry" />
        </mxCell>
        <mxCell id="VIZ3PdG-3f_oEq-HjuZ--65" value="&lt;div&gt;Chirurgien 1&lt;/div&gt;" style="rounded=1;whiteSpace=wrap;html=1;fillColor=#f5f5f5;fontColor=#333333;strokeColor=#666666;" vertex="1" parent="VIZ3PdG-3f_oEq-HjuZ--63">
          <mxGeometry x="300" y="90" width="80" height="80" as="geometry" />
        </mxCell>
        <mxCell id="VIZ3PdG-3f_oEq-HjuZ--66" value="Chirurgien 4" style="rounded=1;whiteSpace=wrap;html=1;fillColor=#fff2cc;strokeColor=#d6b656;" vertex="1" parent="VIZ3PdG-3f_oEq-HjuZ--63">
          <mxGeometry x="220" y="60" width="80" height="230" as="geometry" />
        </mxCell>
        <mxCell id="VIZ3PdG-3f_oEq-HjuZ--67" value="Chirurgien2" style="rounded=1;whiteSpace=wrap;html=1;fillColor=#dae8fc;strokeColor=#6c8ebf;" vertex="1" parent="VIZ3PdG-3f_oEq-HjuZ--63">
          <mxGeometry x="300" y="170" width="80" height="60" as="geometry" />
        </mxCell>
        <mxCell id="VIZ3PdG-3f_oEq-HjuZ--68" value="Chirurgien3" style="rounded=1;whiteSpace=wrap;html=1;fillColor=#d5e8d4;strokeColor=#82b366;" vertex="1" parent="VIZ3PdG-3f_oEq-HjuZ--63">
          <mxGeometry x="300" y="230" width="80" height="60" as="geometry" />
        </mxCell>
        <mxCell id="VIZ3PdG-3f_oEq-HjuZ--76" value="Patient1" style="rounded=1;whiteSpace=wrap;html=1;" vertex="1" parent="VIZ3PdG-3f_oEq-HjuZ--63">
          <mxGeometry x="440" y="250" width="80" height="40" as="geometry" />
        </mxCell>
        <mxCell id="VIZ3PdG-3f_oEq-HjuZ--73" value="Patient6" style="rounded=1;whiteSpace=wrap;html=1;" vertex="1" parent="VIZ3PdG-3f_oEq-HjuZ--63">
          <mxGeometry x="520" y="120" width="80" height="170" as="geometry" />
        </mxCell>
        <mxCell id="VIZ3PdG-3f_oEq-HjuZ--74" value="&lt;div&gt;Patient5&lt;/div&gt;" style="rounded=1;whiteSpace=wrap;html=1;" vertex="1" parent="VIZ3PdG-3f_oEq-HjuZ--63">
          <mxGeometry x="440" y="150" width="80" height="40" as="geometry" />
        </mxCell>
        <mxCell id="VIZ3PdG-3f_oEq-HjuZ--75" value="Patient2" style="rounded=1;whiteSpace=wrap;html=1;" vertex="1" parent="VIZ3PdG-3f_oEq-HjuZ--63">
          <mxGeometry x="440" y="230" width="80" height="20" as="geometry" />
        </mxCell>
        <mxCell id="VIZ3PdG-3f_oEq-HjuZ--79" value="Patient3" style="rounded=1;whiteSpace=wrap;html=1;" vertex="1" parent="VIZ3PdG-3f_oEq-HjuZ--63">
          <mxGeometry x="440" y="210" width="80" height="20" as="geometry" />
        </mxCell>
        <mxCell id="VIZ3PdG-3f_oEq-HjuZ--80" value="Patient4" style="rounded=1;whiteSpace=wrap;html=1;" vertex="1" parent="VIZ3PdG-3f_oEq-HjuZ--63">
          <mxGeometry x="440" y="190" width="80" height="20" as="geometry" />
        </mxCell>
        <mxCell id="VIZ3PdG-3f_oEq-HjuZ--69" value="Patient8" style="rounded=1;whiteSpace=wrap;html=1;" vertex="1" parent="VIZ3PdG-3f_oEq-HjuZ--63">
          <mxGeometry x="440" y="70" width="80" height="40" as="geometry" />
        </mxCell>
        <mxCell id="VIZ3PdG-3f_oEq-HjuZ--72" value="Patient7" style="rounded=1;whiteSpace=wrap;html=1;" vertex="1" parent="VIZ3PdG-3f_oEq-HjuZ--63">
          <mxGeometry x="440" y="110" width="80" height="40" as="geometry" />
        </mxCell>
        <mxCell id="VIZ3PdG-3f_oEq-HjuZ--71" value="Patient9" style="rounded=1;whiteSpace=wrap;html=1;fillColor=#f8cecc;strokeColor=#b85450;" vertex="1" parent="VIZ3PdG-3f_oEq-HjuZ--63">
          <mxGeometry x="600" y="260" width="80" height="30" as="geometry" />
        </mxCell>
        <mxCell id="VIZ3PdG-3f_oEq-HjuZ--81" value="Patient12" style="rounded=1;whiteSpace=wrap;html=1;" vertex="1" parent="VIZ3PdG-3f_oEq-HjuZ--63">
          <mxGeometry x="600" y="170" width="80" height="30" as="geometry" />
        </mxCell>
        <mxCell id="VIZ3PdG-3f_oEq-HjuZ--82" value="Patient11" style="rounded=1;whiteSpace=wrap;html=1;fillColor=#f8cecc;strokeColor=#b85450;" vertex="1" parent="VIZ3PdG-3f_oEq-HjuZ--63">
          <mxGeometry x="600" y="200" width="80" height="30" as="geometry" />
        </mxCell>
        <mxCell id="VIZ3PdG-3f_oEq-HjuZ--83" value="Patient10" style="rounded=1;whiteSpace=wrap;html=1;fillColor=#f8cecc;strokeColor=#b85450;" vertex="1" parent="VIZ3PdG-3f_oEq-HjuZ--63">
          <mxGeometry x="600" y="230" width="80" height="30" as="geometry" />
        </mxCell>
        <mxCell id="VIZ3PdG-3f_oEq-HjuZ--84" value="&lt;div&gt;Patient13&lt;/div&gt;" style="rounded=1;whiteSpace=wrap;html=1;" vertex="1" parent="VIZ3PdG-3f_oEq-HjuZ--63">
          <mxGeometry x="600" y="140" width="80" height="30" as="geometry" />
        </mxCell>
        <mxCell id="VIZ3PdG-3f_oEq-HjuZ--85" value="Patient14" style="rounded=1;whiteSpace=wrap;html=1;" vertex="1" parent="VIZ3PdG-3f_oEq-HjuZ--63">
          <mxGeometry x="600" y="110" width="80" height="30" as="geometry" />
        </mxCell>
        <mxCell id="VIZ3PdG-3f_oEq-HjuZ--86" value="&lt;div&gt;Patient15&lt;/div&gt;" style="rounded=1;whiteSpace=wrap;html=1;" vertex="1" parent="VIZ3PdG-3f_oEq-HjuZ--63">
          <mxGeometry x="600" y="80" width="80" height="30" as="geometry" />
        </mxCell>
        <mxCell id="VIZ3PdG-3f_oEq-HjuZ--70" value="Patient16" style="rounded=1;whiteSpace=wrap;html=1;fillColor=#f8cecc;strokeColor=#b85450;" vertex="1" parent="VIZ3PdG-3f_oEq-HjuZ--63">
          <mxGeometry x="680" y="210" width="80" height="80" as="geometry" />
        </mxCell>
        <mxCell id="VIZ3PdG-3f_oEq-HjuZ--87" value="Patient17" style="rounded=1;whiteSpace=wrap;html=1;fillColor=#f8cecc;strokeColor=#b85450;" vertex="1" parent="VIZ3PdG-3f_oEq-HjuZ--63">
          <mxGeometry x="680" y="130" width="80" height="80" as="geometry" />
        </mxCell>
        <mxCell id="VIZ3PdG-3f_oEq-HjuZ--88" value="Patient3" style="rounded=1;whiteSpace=wrap;html=1;fillColor=#f8cecc;strokeColor=#b85450;" vertex="1" parent="VIZ3PdG-3f_oEq-HjuZ--63">
          <mxGeometry x="440" y="210" width="80" height="20" as="geometry" />
        </mxCell>
        <mxCell id="VIZ3PdG-3f_oEq-HjuZ--89" value="Patient2" style="rounded=1;whiteSpace=wrap;html=1;fillColor=#f8cecc;strokeColor=#b85450;" vertex="1" parent="VIZ3PdG-3f_oEq-HjuZ--63">
          <mxGeometry x="440" y="230" width="80" height="20" as="geometry" />
        </mxCell>
        <mxCell id="VIZ3PdG-3f_oEq-HjuZ--90" value="Patient4" style="rounded=1;whiteSpace=wrap;html=1;fillColor=#f8cecc;strokeColor=#b85450;" vertex="1" parent="VIZ3PdG-3f_oEq-HjuZ--63">
          <mxGeometry x="440" y="190" width="80" height="20" as="geometry" />
        </mxCell>
        <mxCell id="VIZ3PdG-3f_oEq-HjuZ--91" value="&lt;div&gt;Patient5&lt;/div&gt;" style="rounded=1;whiteSpace=wrap;html=1;fillColor=#f8cecc;strokeColor=#b85450;" vertex="1" parent="VIZ3PdG-3f_oEq-HjuZ--63">
          <mxGeometry x="440" y="150" width="80" height="40" as="geometry" />
        </mxCell>
        <mxCell id="VIZ3PdG-3f_oEq-HjuZ--92" value="Patient7" style="rounded=1;whiteSpace=wrap;html=1;fillColor=#f8cecc;strokeColor=#b85450;" vertex="1" parent="VIZ3PdG-3f_oEq-HjuZ--63">
          <mxGeometry x="440" y="110" width="80" height="40" as="geometry" />
        </mxCell>
        <mxCell id="VIZ3PdG-3f_oEq-HjuZ--93" value="Patient8" style="rounded=1;whiteSpace=wrap;html=1;fillColor=#f8cecc;strokeColor=#b85450;" vertex="1" parent="VIZ3PdG-3f_oEq-HjuZ--63">
          <mxGeometry x="440" y="70" width="80" height="40" as="geometry" />
        </mxCell>
        <mxCell id="VIZ3PdG-3f_oEq-HjuZ--94" value="Patient1" style="rounded=1;whiteSpace=wrap;html=1;fillColor=#f8cecc;strokeColor=#b85450;" vertex="1" parent="VIZ3PdG-3f_oEq-HjuZ--63">
          <mxGeometry x="440" y="250" width="80" height="40" as="geometry" />
        </mxCell>
        <mxCell id="VIZ3PdG-3f_oEq-HjuZ--95" value="Patient6" style="rounded=1;whiteSpace=wrap;html=1;fillColor=#f8cecc;strokeColor=#b85450;" vertex="1" parent="VIZ3PdG-3f_oEq-HjuZ--63">
          <mxGeometry x="520" y="120" width="80" height="170" as="geometry" />
        </mxCell>
        <mxCell id="VIZ3PdG-3f_oEq-HjuZ--96" value="&lt;div&gt;Patient15&lt;/div&gt;" style="rounded=1;whiteSpace=wrap;html=1;fillColor=#f8cecc;strokeColor=#b85450;" vertex="1" parent="VIZ3PdG-3f_oEq-HjuZ--63">
          <mxGeometry x="600" y="80" width="80" height="30" as="geometry" />
        </mxCell>
        <mxCell id="VIZ3PdG-3f_oEq-HjuZ--97" value="Patient14" style="rounded=1;whiteSpace=wrap;html=1;fillColor=#f8cecc;strokeColor=#b85450;" vertex="1" parent="VIZ3PdG-3f_oEq-HjuZ--63">
          <mxGeometry x="600" y="110" width="80" height="30" as="geometry" />
        </mxCell>
        <mxCell id="VIZ3PdG-3f_oEq-HjuZ--98" value="&lt;div&gt;Patient13&lt;/div&gt;" style="rounded=1;whiteSpace=wrap;html=1;fillColor=#f8cecc;strokeColor=#b85450;" vertex="1" parent="VIZ3PdG-3f_oEq-HjuZ--63">
          <mxGeometry x="600" y="140" width="80" height="30" as="geometry" />
        </mxCell>
        <mxCell id="VIZ3PdG-3f_oEq-HjuZ--99" value="Patient12" style="rounded=1;whiteSpace=wrap;html=1;fillColor=#f8cecc;strokeColor=#b85450;" vertex="1" parent="VIZ3PdG-3f_oEq-HjuZ--63">
          <mxGeometry x="600" y="170" width="80" height="30" as="geometry" />
        </mxCell>
      </root>
    </mxGraphModel>
  </diagram>
  <diagram id="hyMrHbmloNvQ5S4uKed4" name="Plein vide">
    <mxGraphModel dx="868" dy="450" grid="1" gridSize="10" guides="1" tooltips="1" connect="1" arrows="1" fold="1" page="1" pageScale="1" pageWidth="1169" pageHeight="827" math="0" shadow="0">
      <root>
        <mxCell id="0" />
        <mxCell id="1" parent="0" />
        <mxCell id="lpue4wl33zgiJhUiEoX4-1" value="" style="endArrow=classic;startArrow=classic;html=1;rounded=0;" edge="1" parent="1">
          <mxGeometry width="50" height="50" relative="1" as="geometry">
            <mxPoint x="160" y="235" as="sourcePoint" />
            <mxPoint x="710" y="235" as="targetPoint" />
          </mxGeometry>
        </mxCell>
        <mxCell id="lpue4wl33zgiJhUiEoX4-2" value="" style="endArrow=classic;startArrow=classic;html=1;rounded=0;" edge="1" parent="1">
          <mxGeometry width="50" height="50" relative="1" as="geometry">
            <mxPoint x="437" y="450" as="sourcePoint" />
            <mxPoint x="437" y="20" as="targetPoint" />
          </mxGeometry>
        </mxCell>
        <mxCell id="lpue4wl33zgiJhUiEoX4-3" value="&lt;div&gt;Fréquence fixe&lt;/div&gt;" style="rounded=0;whiteSpace=wrap;html=1;fillColor=#dae8fc;strokeColor=#6c8ebf;" vertex="1" parent="1">
          <mxGeometry x="190" y="220" width="120" height="30" as="geometry" />
        </mxCell>
        <mxCell id="lpue4wl33zgiJhUiEoX4-5" value="&lt;div&gt;Quantité variable&lt;/div&gt;" style="rounded=0;whiteSpace=wrap;html=1;fillColor=#dae8fc;strokeColor=#6c8ebf;" vertex="1" parent="1">
          <mxGeometry x="380" y="40" width="120" height="30" as="geometry" />
        </mxCell>
        <mxCell id="lpue4wl33zgiJhUiEoX4-6" value="&lt;div&gt;Quantité fixe&lt;/div&gt;" style="rounded=0;whiteSpace=wrap;html=1;fillColor=#dae8fc;strokeColor=#6c8ebf;" vertex="1" parent="1">
          <mxGeometry x="380" y="399" width="120" height="30" as="geometry" />
        </mxCell>
        <mxCell id="lpue4wl33zgiJhUiEoX4-8" value="&lt;div&gt;Fréquence variable&lt;/div&gt;" style="rounded=0;whiteSpace=wrap;html=1;fillColor=#dae8fc;strokeColor=#6c8ebf;" vertex="1" parent="1">
          <mxGeometry x="570" y="220" width="120" height="30" as="geometry" />
        </mxCell>
        <mxCell id="lpue4wl33zgiJhUiEoX4-9" value="Système par compensation de dotations" style="rounded=1;whiteSpace=wrap;html=1;strokeColor=#0000FF;strokeWidth=5;" vertex="1" parent="1">
          <mxGeometry x="270" y="110" width="120" height="60" as="geometry" />
        </mxCell>
        <mxCell id="lpue4wl33zgiJhUiEoX4-10" value="Système industriel par seuil de commande type &quot;Kanban&quot;" style="rounded=1;whiteSpace=wrap;html=1;strokeColor=#009900;strokeWidth=5;" vertex="1" parent="1">
          <mxGeometry x="530" y="290" width="120" height="80" as="geometry" />
        </mxCell>
        <mxCell id="lpue4wl33zgiJhUiEoX4-11" value="Système des hôpitaux en &quot;plein-vide&quot;" style="rounded=1;whiteSpace=wrap;html=1;strokeColor=#0000FF;strokeWidth=5;" vertex="1" parent="1">
          <mxGeometry x="390" y="300" width="100" height="60" as="geometry" />
        </mxCell>
        <mxCell id="lpue4wl33zgiJhUiEoX4-14" value="Système désorganisé a éviter" style="ellipse;whiteSpace=wrap;html=1;aspect=fixed;strokeColor=#FF0000;strokeWidth=5;" vertex="1" parent="1">
          <mxGeometry x="530" y="100" width="80" height="80" as="geometry" />
        </mxCell>
        <mxCell id="lpue4wl33zgiJhUiEoX4-15" value="Système impossible" style="ellipse;whiteSpace=wrap;html=1;aspect=fixed;strokeColor=#FF0000;strokeWidth=5;" vertex="1" parent="1">
          <mxGeometry x="260" y="290" width="80" height="80" as="geometry" />
        </mxCell>
      </root>
    </mxGraphModel>
  </diagram>
</mxfile>
